<svg width="172" height="41" viewBox="0 0 172 41" fill="none" xmlns="http://www.w3.org/2000/svg">
<path d="M31.4063 23.3722C31.6768 23.4276 31.8522 23.6921 31.7867 23.9604C31.0496 26.9821 29.2772 29.6569 26.7694 31.5144C24.1274 33.4712 20.8556 34.383 17.5824 34.0745C14.3091 33.7661 11.2652 32.2591 9.03537 29.8431C6.80551 27.4271 5.5469 24.2724 5.50128 20.985C5.45567 17.6976 6.62627 14.5092 8.78824 12.0322C10.9502 9.55531 13.9511 7.96449 17.2145 7.56532C20.478 7.16615 23.7738 7.98679 26.4691 9.86962C29.0274 11.6568 30.8734 14.2814 31.694 17.2815C31.7669 17.5478 31.5989 17.8171 31.33 17.88L29.0561 18.4113C28.7872 18.4742 28.5195 18.3066 28.4433 18.0412C27.812 15.8418 26.4431 13.9199 24.559 12.6038C22.538 11.1919 20.0666 10.5765 17.6195 10.8759C15.1723 11.1752 12.9221 12.3681 11.3009 14.2254C9.67976 16.0828 8.80197 18.4736 8.83618 20.9387C8.87038 23.4038 9.81416 25.7694 11.4862 27.5811C13.1583 29.3927 15.4408 30.5227 17.8953 30.754C20.3498 30.9853 22.8032 30.3016 24.7842 28.8343C26.6311 27.4663 27.9461 25.5072 28.5162 23.2911C28.5849 23.0237 28.8479 22.8488 29.1184 22.9042L31.4063 23.3722Z" fill="#DE0086"/>
<path d="M28.8317 21.9202L28.104 20.0004H28.4446L29.0213 21.6067L29.6019 20.0004H29.9348L29.2071 21.9202H28.8317Z" fill="#DE0086"/>
<path d="M30.9957 21.9667C30.8151 21.9667 30.6525 21.9254 30.508 21.8428C30.3635 21.7603 30.2487 21.6441 30.1635 21.4945C30.081 21.3422 30.0397 21.1642 30.0397 20.9603C30.0397 20.7565 30.0822 20.5797 30.1674 20.43C30.2526 20.2778 30.3674 20.1604 30.5119 20.0778C30.659 19.9952 30.8228 19.9539 31.0035 19.9539C31.1841 19.9539 31.3467 19.9952 31.4912 20.0778C31.6357 20.1604 31.7492 20.2778 31.8318 20.43C31.9169 20.5797 31.9595 20.7565 31.9595 20.9603C31.9595 21.1642 31.9169 21.3422 31.8318 21.4945C31.7466 21.6441 31.6305 21.7603 31.4834 21.8428C31.3389 21.9254 31.1764 21.9667 30.9957 21.9667ZM30.9957 21.688C31.1067 21.688 31.2099 21.6609 31.3054 21.6067C31.4009 21.5525 31.4783 21.4712 31.5376 21.3629C31.597 21.2545 31.6266 21.1203 31.6266 20.9603C31.6266 20.8003 31.597 20.6661 31.5376 20.5578C31.4808 20.4494 31.4047 20.3681 31.3092 20.3139C31.2138 20.2597 31.1118 20.2326 31.0035 20.2326C30.8925 20.2326 30.7893 20.2597 30.6938 20.3139C30.5983 20.3681 30.5209 20.4494 30.4616 20.5578C30.4022 20.6661 30.3725 20.8003 30.3725 20.9603C30.3725 21.1203 30.4022 21.2545 30.4616 21.3629C30.5209 21.4712 30.597 21.5525 30.6899 21.6067C30.7854 21.6609 30.8873 21.688 30.9957 21.688Z" fill="#DE0086"/>
<path d="M32.3342 21.9202V19.1334H32.6593V21.9202H32.3342Z" fill="#DE0086"/>
<path d="M33.6683 21.9202L32.9406 20.0004H33.2813L33.858 21.6067L34.4386 20.0004H34.7715L34.0438 21.9202H33.6683Z" fill="#DE0086"/>
<path d="M35.8208 21.9667C35.6376 21.9667 35.475 21.9254 35.3331 21.8428C35.1912 21.7577 35.0789 21.6403 34.9963 21.4906C34.9163 21.3409 34.8763 21.1642 34.8763 20.9603C34.8763 20.759 34.9163 20.5836 34.9963 20.4339C35.0763 20.2817 35.1873 20.1642 35.3292 20.0817C35.4737 19.9965 35.6402 19.9539 35.8285 19.9539C36.0143 19.9539 36.1743 19.9965 36.3085 20.0817C36.4453 20.1642 36.5498 20.2739 36.622 20.4107C36.6943 20.5474 36.7304 20.6945 36.7304 20.8519C36.7304 20.8803 36.7291 20.9087 36.7265 20.9371C36.7265 20.9655 36.7265 20.9977 36.7265 21.0339H35.1976C35.2053 21.1809 35.2389 21.3035 35.2982 21.4016C35.3602 21.497 35.4363 21.5693 35.5266 21.6183C35.6195 21.6674 35.7176 21.6919 35.8208 21.6919C35.955 21.6919 36.0672 21.6609 36.1575 21.599C36.2478 21.537 36.3136 21.4532 36.3549 21.3474H36.6762C36.6246 21.5254 36.5252 21.6738 36.3782 21.7925C36.2337 21.9086 36.0479 21.9667 35.8208 21.9667ZM35.8208 20.2288C35.666 20.2288 35.5279 20.2765 35.4066 20.372C35.2879 20.4649 35.2195 20.6016 35.2015 20.7823H36.4091C36.4014 20.6094 36.342 20.4739 36.2311 20.3758C36.1201 20.2778 35.9834 20.2288 35.8208 20.2288Z" fill="#DE0086"/>
<path d="M18.9038 29.1334C17.3867 29.1334 16.0406 28.7915 14.8653 28.1077C13.6901 27.4026 12.7606 26.4304 12.0769 25.191C11.4145 23.9517 11.0833 22.4881 11.0833 20.8C11.0833 19.1334 11.4145 17.6804 12.0769 16.441C12.7393 15.1804 13.6581 14.2081 14.8333 13.5244C16.0299 12.8193 17.4081 12.4667 18.9679 12.4667C20.5064 12.4667 21.8312 12.8193 22.9423 13.5244C24.0747 14.2081 24.9401 15.1163 25.5384 16.2487C26.1367 17.3812 26.4359 18.5992 26.4359 19.9026C26.4359 20.1376 26.4252 20.3727 26.4038 20.6077C26.4038 20.8428 26.4038 21.1098 26.4038 21.409H13.7436C13.8077 22.6269 14.0854 23.6419 14.5769 24.4539C15.0897 25.2445 15.72 25.8428 16.4679 26.2487C17.2371 26.6547 18.0491 26.8577 18.9038 26.8577C20.0149 26.8577 20.9444 26.6013 21.6923 26.0885C22.4401 25.5757 22.985 24.8812 23.3269 24.0051H25.9871C25.5598 25.4795 24.7371 26.7081 23.5192 27.691C22.3226 28.6526 20.7841 29.1334 18.9038 29.1334ZM18.9038 14.7423C17.6218 14.7423 16.4786 15.1376 15.4743 15.9282C14.4914 16.6975 13.9252 17.8299 13.7756 19.3257H23.7756C23.7115 17.894 23.22 16.7722 22.3012 15.9603C21.3824 15.1483 20.25 14.7423 18.9038 14.7423Z" fill="#DE0086"/>
<path d="M46.05 27.0333C44.6278 27.0333 43.5 26.6333 42.6667 25.8333C41.8333 25.0222 41.4167 23.8555 41.4167 22.3333V19.6C41.4167 18.0778 41.8333 16.9167 42.6667 16.1167C43.5 15.3055 44.6278 14.9 46.05 14.9C47.45 14.9 48.5278 15.2889 49.2833 16.0667C50.05 16.8444 50.4333 17.9055 50.4333 19.25V19.35H48.65V19.2C48.65 18.4111 48.4333 17.7667 48 17.2667C47.5778 16.7667 46.9278 16.5167 46.05 16.5167C45.1611 16.5167 44.4667 16.7889 43.9667 17.3333C43.4667 17.8667 43.2167 18.6111 43.2167 19.5667V22.3667C43.2167 23.3111 43.4667 24.0555 43.9667 24.6C44.4667 25.1444 45.1611 25.4167 46.05 25.4167C46.9278 25.4167 47.5778 25.1667 48 24.6667C48.4333 24.1555 48.65 23.5111 48.65 22.7333V22.45H50.4333V22.6833C50.4333 24.0278 50.05 25.0889 49.2833 25.8667C48.5278 26.6444 47.45 27.0333 46.05 27.0333ZM55.0263 27.0333C54.4374 27.0333 53.9096 26.9333 53.443 26.7333C52.9874 26.5333 52.6207 26.2389 52.343 25.85C52.0763 25.4611 51.943 24.9889 51.943 24.4333C51.943 23.8667 52.0763 23.4 52.343 23.0333C52.6207 22.6555 52.993 22.3722 53.4596 22.1833C53.9374 21.9944 54.4763 21.9 55.0763 21.9H57.5763V21.3667C57.5763 20.8889 57.4319 20.5055 57.143 20.2167C56.8541 19.9278 56.4096 19.7833 55.8096 19.7833C55.2207 19.7833 54.7707 19.9222 54.4596 20.2C54.1485 20.4778 53.943 20.8389 53.843 21.2833L52.243 20.7667C52.3763 20.3222 52.5874 19.9222 52.8763 19.5667C53.1763 19.2 53.5707 18.9055 54.0596 18.6833C54.5485 18.4611 55.1374 18.35 55.8263 18.35C56.893 18.35 57.7319 18.6222 58.343 19.1667C58.9541 19.7111 59.2596 20.4833 59.2596 21.4833V24.8667C59.2596 25.2 59.4152 25.3667 59.7263 25.3667H60.4263V26.8H59.143C58.7541 26.8 58.4374 26.7 58.193 26.5C57.9485 26.3 57.8263 26.0278 57.8263 25.6833V25.6333H57.5763C57.4874 25.8 57.3541 25.9944 57.1763 26.2167C56.9985 26.4389 56.7374 26.6333 56.393 26.8C56.0485 26.9555 55.593 27.0333 55.0263 27.0333ZM55.2763 25.6167C55.9652 25.6167 56.5207 25.4222 56.943 25.0333C57.3652 24.6333 57.5763 24.0889 57.5763 23.4V23.2333H55.1763C54.7207 23.2333 54.3541 23.3333 54.0763 23.5333C53.7985 23.7222 53.6596 24.0055 53.6596 24.3833C53.6596 24.7611 53.8041 25.0611 54.093 25.2833C54.3819 25.5055 54.7763 25.6167 55.2763 25.6167ZM62.0954 30.1333V18.5833H63.7788V19.7667H64.0454C64.2566 19.4 64.5732 19.0722 64.9954 18.7833C65.4288 18.4944 66.0454 18.35 66.8454 18.35C67.5343 18.35 68.1621 18.5167 68.7288 18.85C69.3066 19.1833 69.7677 19.6667 70.1121 20.3C70.4677 20.9222 70.6454 21.6778 70.6454 22.5667V22.8167C70.6454 23.7055 70.4732 24.4667 70.1288 25.1C69.7843 25.7222 69.3232 26.2 68.7454 26.5333C68.1677 26.8667 67.5343 27.0333 66.8454 27.0333C66.3121 27.0333 65.8621 26.9667 65.4954 26.8333C65.1288 26.7 64.8343 26.5333 64.6121 26.3333C64.3899 26.1222 64.2121 25.9055 64.0788 25.6833H63.8121V30.1333H62.0954ZM66.3454 25.5333C67.101 25.5333 67.7177 25.2944 68.1954 24.8167C68.6732 24.3389 68.9121 23.6555 68.9121 22.7667V22.6167C68.9121 21.7389 68.6677 21.0611 68.1788 20.5833C67.701 20.1055 67.0899 19.8667 66.3454 19.8667C65.6121 19.8667 65.001 20.1055 64.5121 20.5833C64.0343 21.0611 63.7954 21.7389 63.7954 22.6167V22.7667C63.7954 23.6555 64.0343 24.3389 64.5121 24.8167C65.001 25.2944 65.6121 25.5333 66.3454 25.5333ZM73.9466 26.8V20.0333H71.6466V18.5833H73.9466V16.7833C73.9466 16.2833 74.0966 15.8833 74.3966 15.5833C74.6966 15.2833 75.0966 15.1333 75.5966 15.1333H77.5966V16.5833H76.1466C75.8244 16.5833 75.6633 16.75 75.6633 17.0833V18.5833H79.3466V20.0333H75.6633V26.8H73.9466ZM79.3466 26.8V18.5833H81.0633V26.8H79.3466ZM80.2133 17.5167C79.88 17.5167 79.5966 17.4111 79.3633 17.2C79.1411 16.9778 79.03 16.6944 79.03 16.35C79.03 15.9944 79.1411 15.7111 79.3633 15.5C79.5966 15.2889 79.88 15.1833 80.2133 15.1833C80.5466 15.1833 80.8244 15.2889 81.0466 15.5C81.28 15.7111 81.3966 15.9944 81.3966 16.35C81.3966 16.6944 81.28 16.9778 81.0466 17.2C80.8244 17.4111 80.5466 17.5167 80.2133 17.5167ZM87.3628 27.0333C86.5294 27.0333 85.8017 26.8611 85.1794 26.5167C84.5572 26.1611 84.0683 25.6667 83.7128 25.0333C83.3683 24.3889 83.1961 23.6444 83.1961 22.8V22.6C83.1961 21.7444 83.3683 21 83.7128 20.3667C84.0572 19.7222 84.535 19.2278 85.1461 18.8833C85.7683 18.5278 86.485 18.35 87.2961 18.35C88.085 18.35 88.7739 18.5278 89.3628 18.8833C89.9628 19.2278 90.4294 19.7111 90.7628 20.3333C91.0961 20.9555 91.2628 21.6833 91.2628 22.5167V23.1667H84.9461C84.9683 23.8889 85.2072 24.4667 85.6628 24.9C86.1294 25.3222 86.7072 25.5333 87.3961 25.5333C88.0405 25.5333 88.5239 25.3889 88.8461 25.1C89.1794 24.8111 89.435 24.4778 89.6128 24.1L91.0294 24.8333C90.8739 25.1444 90.6461 25.4722 90.3461 25.8167C90.0572 26.1611 89.6739 26.45 89.1961 26.6833C88.7183 26.9167 88.1072 27.0333 87.3628 27.0333ZM84.9628 21.85H89.5128C89.4683 21.2278 89.2461 20.7444 88.8461 20.4C88.4461 20.0444 87.9239 19.8667 87.2794 19.8667C86.635 19.8667 86.1072 20.0444 85.6961 20.4C85.2961 20.7444 85.0517 21.2278 84.9628 21.85ZM93.3292 26.8V15.1333H95.0458V26.8H93.3292ZM100.993 27.0333C100.316 27.0333 99.6879 26.8667 99.1102 26.5333C98.5324 26.2 98.0657 25.7222 97.7102 25.1C97.3657 24.4667 97.1935 23.7055 97.1935 22.8167V22.5667C97.1935 21.6889 97.3657 20.9333 97.7102 20.3C98.0546 19.6667 98.5157 19.1833 99.0935 18.85C99.6713 18.5167 100.305 18.35 100.993 18.35C101.527 18.35 101.971 18.4167 102.327 18.55C102.693 18.6833 102.993 18.8555 103.227 19.0667C103.46 19.2667 103.638 19.4778 103.76 19.7H104.027V15.1333H105.743V26.8H104.06V25.6333H103.793C103.582 25.9889 103.26 26.3111 102.827 26.6C102.405 26.8889 101.793 27.0333 100.993 27.0333ZM101.477 25.5333C102.221 25.5333 102.832 25.2944 103.31 24.8167C103.799 24.3389 104.043 23.6555 104.043 22.7667V22.6167C104.043 21.7389 103.805 21.0611 103.327 20.5833C102.849 20.1055 102.232 19.8667 101.477 19.8667C100.743 19.8667 100.132 20.1055 99.6435 20.5833C99.1657 21.0611 98.9268 21.7389 98.9268 22.6167V22.7667C98.9268 23.6555 99.1657 24.3389 99.6435 24.8167C100.132 25.2944 100.743 25.5333 101.477 25.5333ZM111.637 27.0333C110.593 27.0333 109.726 26.8 109.037 26.3333C108.348 25.8667 107.926 25.1611 107.771 24.2167L109.371 23.8333C109.459 24.2889 109.609 24.65 109.821 24.9167C110.032 25.1833 110.293 25.3722 110.604 25.4833C110.926 25.5944 111.271 25.65 111.637 25.65C112.182 25.65 112.598 25.5444 112.887 25.3333C113.187 25.1222 113.337 24.85 113.337 24.5167C113.337 24.1833 113.198 23.9389 112.921 23.7833C112.643 23.6278 112.232 23.5 111.687 23.4L111.121 23.3C110.565 23.2 110.059 23.0555 109.604 22.8667C109.148 22.6778 108.787 22.4167 108.521 22.0833C108.254 21.75 108.121 21.3222 108.121 20.8C108.121 20.0222 108.409 19.4222 108.987 19C109.565 18.5667 110.332 18.35 111.287 18.35C112.209 18.35 112.965 18.5611 113.554 18.9833C114.154 19.3944 114.543 19.9555 114.721 20.6667L113.121 21.1167C113.021 20.6167 112.809 20.2667 112.487 20.0667C112.165 19.8555 111.765 19.75 111.287 19.75C110.821 19.75 110.454 19.8389 110.187 20.0167C109.921 20.1833 109.787 20.4222 109.787 20.7333C109.787 21.0667 109.915 21.3111 110.171 21.4667C110.437 21.6222 110.793 21.7389 111.237 21.8167L111.821 21.9167C112.409 22.0167 112.948 22.1555 113.437 22.3333C113.926 22.5111 114.309 22.7667 114.587 23.1C114.876 23.4333 115.021 23.8778 115.021 24.4333C115.021 25.2555 114.715 25.8944 114.104 26.35C113.493 26.8055 112.671 27.0333 111.637 27.0333ZM121.225 26.8V15.1333H128.575V16.7667H123.025V20.1167H128.108V21.75H123.025V25.1667H128.658V26.8H121.225ZM132.485 26.8L129.718 18.5833H131.535L133.718 25.5333H133.985L136.168 18.5833H137.985L135.218 26.8H132.485ZM143.208 27.0333C142.386 27.0333 141.652 26.8667 141.008 26.5333C140.374 26.1889 139.874 25.7 139.508 25.0667C139.141 24.4333 138.958 23.6833 138.958 22.8167V22.5667C138.958 21.7 139.141 20.9555 139.508 20.3333C139.874 19.7 140.374 19.2111 141.008 18.8667C141.652 18.5222 142.386 18.35 143.208 18.35C144.03 18.35 144.763 18.5222 145.408 18.8667C146.052 19.2111 146.558 19.7 146.924 20.3333C147.291 20.9555 147.474 21.7 147.474 22.5667V22.8167C147.474 23.6833 147.291 24.4333 146.924 25.0667C146.558 25.7 146.052 26.1889 145.408 26.5333C144.763 26.8667 144.03 27.0333 143.208 27.0333ZM143.208 25.5C143.963 25.5 144.574 25.2611 145.041 24.7833C145.519 24.2944 145.758 23.6222 145.758 22.7667V22.6167C145.758 21.7611 145.524 21.0944 145.058 20.6167C144.591 20.1278 143.974 19.8833 143.208 19.8833C142.463 19.8833 141.852 20.1278 141.374 20.6167C140.908 21.0944 140.674 21.7611 140.674 22.6167V22.7667C140.674 23.6222 140.908 24.2944 141.374 24.7833C141.852 25.2611 142.463 25.5 143.208 25.5ZM149.612 26.8V15.1333H151.328V26.8H149.612ZM155.776 26.8L153.009 18.5833H154.826L157.009 25.5333H157.276L159.459 18.5833H161.276L158.509 26.8H155.776ZM166.416 27.0333C165.582 27.0333 164.854 26.8611 164.232 26.5167C163.61 26.1611 163.121 25.6667 162.766 25.0333C162.421 24.3889 162.249 23.6444 162.249 22.8V22.6C162.249 21.7444 162.421 21 162.766 20.3667C163.11 19.7222 163.588 19.2278 164.199 18.8833C164.821 18.5278 165.538 18.35 166.349 18.35C167.138 18.35 167.827 18.5278 168.416 18.8833C169.016 19.2278 169.482 19.7111 169.816 20.3333C170.149 20.9555 170.316 21.6833 170.316 22.5167V23.1667H163.999C164.021 23.8889 164.26 24.4667 164.716 24.9C165.182 25.3222 165.76 25.5333 166.449 25.5333C167.093 25.5333 167.577 25.3889 167.899 25.1C168.232 24.8111 168.488 24.4778 168.666 24.1L170.082 24.8333C169.927 25.1444 169.699 25.4722 169.399 25.8167C169.11 26.1611 168.727 26.45 168.249 26.6833C167.771 26.9167 167.16 27.0333 166.416 27.0333ZM164.016 21.85H168.566C168.521 21.2278 168.299 20.7444 167.899 20.4C167.499 20.0444 166.977 19.8667 166.332 19.8667C165.688 19.8667 165.16 20.0444 164.749 20.4C164.349 20.7444 164.104 21.2278 164.016 21.85Z" fill="#1D2939"/>
</svg>
